<?xml version="1.0" standalone="no"?>
<!DOCTYPE svg PUBLIC "-//W3C//DTD SVG 20010904//EN"
 "http://www.w3.org/TR/2001/REC-SVG-20010904/DTD/svg10.dtd">
<svg version="1.0" xmlns="http://www.w3.org/2000/svg"
 width="1500.000000pt" height="1500.000000pt" viewBox="0 0 1500.000000 1500.000000"
 preserveAspectRatio="xMidYMid meet">
<metadata>
Created by potrace 1.14, written by Peter Selinger 2001-2017
</metadata>
<g transform="translate(0.000000,1500.000000) scale(0.100000,-0.100000)"
fill="#000000" stroke="none">
<path d="M0 7500 l0 -7500 7500 0 7500 0 0 7500 0 7500 -7500 0 -7500 0 0
-7500z m5425 3656 c284 -11 591 -64 817 -142 167 -58 411 -179 526 -261 255
-183 442 -431 502 -667 16 -62 20 -112 20 -226 0 -152 -7 -209 -37 -308 l-18
-57 -6 145 c-6 125 -11 157 -38 233 -44 128 -114 268 -169 335 -76 95 -128
151 -142 154 -7 2 -23 12 -35 23 -24 21 -216 120 -292 151 -32 13 -58 15 -104
10 -40 -4 -81 -1 -118 8 -141 35 -564 42 -741 13 -114 -20 -188 -41 -235 -67
-16 -9 -48 -23 -70 -30 -22 -7 -42 -16 -45 -19 -3 -4 -36 -17 -75 -30 -63 -22
-216 -92 -271 -124 -33 -19 -94 -69 -123 -99 -14 -16 -32 -28 -40 -28 -8 0
-12 -2 -10 -5 3 -2 -20 -31 -50 -62 -155 -161 -325 -455 -365 -635 -36 -158
-28 -388 19 -536 65 -206 267 -452 438 -535 74 -36 273 -99 348 -112 36 -5 78
-29 69 -38 -11 -11 -322 45 -445 79 -144 40 -248 85 -336 145 -57 39 -71 52
-48 47 6 -2 13 5 14 15 2 9 -2 17 -8 17 -9 0 -9 2 0 8 8 5 3 16 -14 37 -14 17
-22 23 -19 15 4 -8 -1 -4 -11 9 -10 14 -34 41 -54 60 -43 43 -169 196 -169
206 0 3 -14 27 -32 52 -17 26 -31 52 -31 60 0 7 -4 13 -9 13 -4 0 -8 13 -8 29
0 20 -6 30 -20 34 -11 3 -18 1 -15 -3 3 -5 1 -12 -5 -15 -6 -4 -9 -3 -8 2 4
14 -13 53 -23 53 -5 0 -9 -12 -10 -27 0 -24 -3 -21 -16 17 -23 69 -20 336 5
465 50 250 165 482 339 681 48 54 123 118 253 215 150 113 213 153 335 213
135 67 316 135 403 152 60 12 26 15 -44 4 -283 -44 -485 -138 -921 -427 -145
-97 -390 -366 -476 -524 -60 -108 -173 -369 -205 -469 -58 -183 -76 -304 -77
-515 0 -210 10 -275 71 -465 41 -127 179 -408 231 -470 58 -69 229 -228 319
-296 99 -75 251 -166 341 -203 78 -32 145 -71 123 -71 -51 0 -444 145 -585
216 -117 59 -233 147 -262 199 -18 33 -222 271 -321 375 -38 40 -82 106 -106
163 -13 29 -49 104 -79 168 -110 229 -147 318 -147 355 0 8 -6 25 -14 37 -23
36 -35 158 -41 397 -4 167 -1 188 51 372 83 287 219 545 382 721 294 318 454
442 732 566 166 75 381 139 571 172 114 19 376 38 459 32 19 -1 98 -5 175 -7z
m4807 -25 c327 -51 621 -149 847 -280 124 -73 385 -302 541 -476 75 -84 202
-280 265 -410 60 -122 133 -335 161 -465 28 -125 27 -559 0 -675 -19 -81 -84
-268 -126 -360 -60 -132 -178 -300 -276 -390 -24 -23 -44 -46 -44 -53 0 -7 -5
-11 -12 -9 -7 1 -17 -8 -23 -20 -5 -13 -16 -23 -23 -23 -7 0 -10 -5 -7 -10 4
-6 -8 -16 -25 -24 -17 -7 -31 -17 -31 -22 1 -5 -5 -9 -12 -9 -15 0 -137 -95
-137 -106 0 -5 -7 -9 -16 -9 -8 0 -13 -4 -10 -9 10 -16 -146 -125 -263 -184
-160 -82 -265 -122 -423 -162 -76 -19 -144 -35 -151 -35 -31 0 27 32 118 65
208 75 400 199 570 370 210 210 348 471 407 770 18 90 22 143 22 290 -1 276
-45 478 -149 686 -67 133 -222 386 -284 464 -97 122 -270 288 -366 352 -232
154 -437 274 -563 328 -84 37 -309 99 -392 108 l-45 5 50 -14 c103 -30 304
-109 410 -161 166 -82 470 -290 566 -388 202 -205 356 -504 390 -761 18 -140
7 -349 -25 -457 -31 -105 -84 -214 -138 -282 -34 -43 -219 -217 -225 -211 -1
1 31 38 72 81 56 60 75 86 75 107 0 15 4 28 9 28 5 0 11 9 14 20 3 11 -34 -20
-84 -70 -81 -82 -94 -99 -90 -123 0 -4 -2 -6 -6 -6 -20 3 -34 -2 -29 -10 3 -5
-6 -12 -20 -15 -17 -5 -24 -12 -20 -21 4 -10 -1 -15 -16 -15 -16 0 -19 -3 -11
-11 9 -9 23 -6 55 10 l43 21 -35 -30 c-99 -87 -298 -179 -495 -230 -149 -39
-415 -65 -415 -41 0 9 40 19 169 41 92 16 224 56 284 86 105 53 246 185 342
319 99 137 138 248 156 437 10 97 9 136 -5 236 -19 139 -36 193 -106 334 -65
133 -150 246 -297 395 -123 124 -219 191 -375 262 -38 17 -96 44 -130 60 -35
15 -74 32 -88 36 -14 4 -29 11 -35 15 -39 29 -330 100 -495 120 -113 15 -400
6 -411 -11 -4 -6 -12 -9 -18 -5 -12 8 -183 -22 -191 -33 -3 -4 -21 -12 -40
-18 -171 -55 -338 -126 -380 -159 -43 -35 -183 -179 -222 -228 -81 -102 -113
-197 -148 -436 -33 -231 -34 -233 -50 -96 -15 143 -8 372 15 466 25 102 75
227 118 293 54 83 246 278 342 347 123 87 256 162 407 229 226 100 413 149
708 185 69 9 139 18 155 20 17 2 143 3 280 1 197 -2 279 -7 387 -24z m-4134
-1358 c82 -142 118 -211 163 -308 20 -44 83 -165 139 -270 57 -104 129 -237
160 -295 31 -58 73 -130 92 -160 43 -67 229 -414 381 -710 258 -504 391 -759
429 -817 l40 -63 -7 -645 c-4 -355 -11 -645 -15 -645 -17 0 -43 43 -80 136
-63 153 -89 204 -135 264 -43 56 -137 225 -150 270 -4 14 -25 60 -46 103 -22
43 -39 86 -39 95 0 20 -81 165 -109 197 -10 11 -33 47 -51 80 -19 33 -44 74
-56 90 -12 17 -43 70 -69 118 -25 48 -62 114 -81 145 -18 31 -34 60 -34 64 0
3 -23 46 -51 95 -28 48 -62 107 -75 130 -84 151 -121 213 -148 253 -17 25 -52
88 -78 140 l-47 95 -1 -1242 0 -1243 25 -67 c27 -72 35 -87 139 -258 36 -60
61 -112 56 -113 -6 -2 -29 6 -53 17 -41 20 -59 21 -424 21 -227 1 -383 5 -385
10 -2 6 0 139 4 297 4 159 6 1043 4 1966 l-4 1677 -28 48 c-15 26 -42 67 -60
92 -17 25 -55 91 -83 148 -80 162 -161 270 -252 338 -26 19 -49 40 -52 47 -3
9 93 11 457 10 l461 -3 63 -107z m3725 107 c166 0 167 -1 87 -62 -82 -62 -231
-280 -331 -485 l-69 -141 0 -1974 0 -1973 -392 0 c-216 0 -408 -3 -425 -7 -43
-10 -43 4 1 79 19 32 65 128 103 213 l68 155 -1 635 c-1 1402 -4 1811 -14
1805 -6 -3 -41 -68 -78 -143 -38 -75 -112 -213 -164 -307 -52 -93 -123 -219
-157 -279 -33 -60 -61 -110 -61 -111 0 -2 -25 -47 -57 -101 -240 -420 -327
-579 -405 -742 -38 -79 -89 -174 -114 -212 -24 -38 -83 -147 -131 -242 -81
-162 -87 -171 -95 -143 -5 17 -7 316 -5 666 l4 636 48 89 c26 49 88 162 138
252 49 89 107 203 129 254 22 50 69 141 103 202 34 61 138 251 230 421 93 171
188 342 213 380 55 86 225 402 315 585 36 74 95 180 130 235 35 55 90 147 121
205 32 58 64 109 70 113 6 5 142 6 301 3 160 -3 357 -6 438 -6z m-4543 -2718
c0 -5 -40 -31 -89 -57 -163 -89 -266 -196 -352 -367 -106 -211 -146 -394 -135
-623 7 -164 21 -242 71 -385 55 -159 118 -278 218 -413 187 -250 440 -459 712
-588 106 -50 290 -112 365 -124 186 -28 435 -130 630 -257 131 -85 281 -219
354 -318 46 -63 167 -294 186 -355 6 -22 21 -63 32 -92 11 -28 18 -60 16 -70
-3 -11 -25 26 -60 98 -31 64 -79 146 -108 183 -28 38 -50 76 -48 85 3 20 -32
78 -68 111 -21 19 -26 21 -21 7 6 -15 3 -16 -12 -7 -11 5 -21 13 -23 17 -1 5
-43 34 -93 67 -49 32 -101 67 -115 77 -153 115 -280 175 -480 229 -63 17 -140
38 -170 46 -30 9 -82 23 -115 30 -33 8 -67 17 -75 19 -8 2 -32 9 -52 15 -21 5
-55 15 -75 21 -21 6 -60 15 -88 20 -27 6 -59 16 -70 23 -11 7 -51 25 -90 41
-99 39 -527 316 -655 424 -30 25 -72 59 -93 74 -89 67 -245 289 -302 432 -9
22 -20 49 -25 60 -5 11 -15 45 -24 75 -36 134 -80 276 -88 285 -4 5 -8 20 -9
35 0 14 -3 19 -6 13 -10 -27 -21 -11 -16 25 29 206 248 612 430 798 133 135
242 215 385 283 104 49 140 65 156 70 1 1 2 -3 2 -7z m4685 -73 c92 -40 192
-108 308 -211 66 -59 212 -242 305 -383 71 -109 166 -306 186 -385 33 -136 37
-169 37 -312 -1 -164 -11 -209 -76 -337 -33 -66 -128 -196 -185 -254 -18 -18
-40 -49 -51 -69 -10 -20 -64 -82 -119 -138 -55 -55 -97 -100 -93 -100 5 0 -5
-7 -21 -15 -16 -9 -34 -14 -40 -11 -6 2 -3 5 7 5 10 1 15 6 12 11 -3 6 1 10
10 10 9 0 13 5 10 10 -11 18 14 38 38 32 12 -3 19 -1 15 3 -7 7 25 63 44 75 4
3 18 31 32 62 14 31 38 71 54 90 31 36 107 166 100 173 -2 2 -45 -51 -96 -118
-90 -118 -214 -238 -367 -353 -69 -53 -288 -191 -355 -225 -77 -39 -292 -119
-425 -159 -60 -17 -130 -39 -153 -47 -24 -8 -72 -21 -105 -28 -179 -40 -306
-79 -379 -116 -10 -5 -25 -9 -33 -9 -8 0 -32 -9 -52 -20 -21 -11 -44 -20 -51
-20 -19 0 -118 -55 -162 -90 -19 -15 -55 -38 -80 -51 -25 -12 -49 -29 -53 -36
-5 -7 -12 -11 -17 -8 -10 6 -146 -123 -143 -136 2 -5 -4 -9 -13 -9 -8 0 -12
-5 -9 -10 4 -6 -9 -31 -29 -55 -20 -24 -36 -46 -36 -48 0 -3 -15 -27 -34 -55
-31 -46 -64 -128 -100 -247 l-16 -50 4 65 c6 108 89 336 163 447 48 72 187
219 278 293 201 163 464 291 679 331 221 41 427 112 561 192 121 73 306 217
406 317 102 101 268 316 319 412 43 80 103 254 130 373 19 83 23 129 23 275
-1 264 -19 345 -126 553 -95 186 -197 292 -366 381 -39 20 -71 39 -71 42 0 8
38 -5 135 -47z m1725 -582 c0 -23 5 -60 10 -82 17 -73 22 -268 11 -430 -12
-166 -33 -277 -78 -405 -43 -124 -61 -160 -76 -155 -7 3 -24 -6 -37 -20 -13
-14 -20 -25 -16 -25 4 0 -11 -18 -33 -39 -23 -22 -41 -43 -41 -47 0 -4 -22
-33 -48 -63 -27 -31 -63 -77 -80 -103 -18 -25 -42 -55 -55 -65 -22 -18 -49
-50 -77 -94 -28 -43 -186 -174 -327 -270 -84 -57 -357 -199 -383 -199 -4 0
-13 -7 -20 -15 -6 -8 -15 -14 -18 -13 -7 1 -17 -2 -82 -27 -19 -8 -75 -26
-125 -41 -93 -27 -300 -106 -393 -149 -29 -14 -55 -25 -58 -25 -3 0 -74 -33
-157 -74 -84 -41 -163 -77 -177 -80 -14 -3 -38 -8 -55 -11 -56 -11 -60 -13
-58 -24 3 -9 -41 -17 -69 -12 -5 0 -8 -2 -8 -7 0 -4 -33 -24 -73 -44 -61 -31
-85 -42 -117 -53 -3 -1 -18 -7 -33 -13 -16 -7 -35 -12 -43 -12 -8 0 -14 -4
-14 -8 0 -4 -20 -14 -44 -21 -25 -7 -46 -17 -48 -21 -3 -8 -179 -90 -194 -90
-38 0 -276 -159 -347 -232 -15 -15 -32 -28 -38 -28 -5 0 -7 -4 -4 -10 3 -5 -3
-15 -15 -22 -11 -7 -20 -17 -20 -22 0 -5 -16 -26 -35 -48 -20 -21 -34 -42 -31
-47 6 -9 -78 -101 -93 -101 -6 0 -11 -7 -11 -15 0 -8 -7 -15 -17 -15 -9 0 -14
-3 -10 -6 3 -3 -3 -16 -15 -28 -27 -29 -70 -117 -64 -133 3 -7 0 -13 -6 -13
-6 0 -8 -11 -5 -30 5 -24 4 -28 -10 -23 -14 5 -15 1 -10 -25 5 -24 2 -34 -12
-44 -10 -7 -19 -17 -20 -23 -6 -35 -15 -62 -24 -73 -6 -8 -10 -30 -9 -49 2
-25 -1 -33 -9 -27 -8 5 -9 3 -3 -7 4 -8 9 -41 10 -74 1 -33 8 -73 14 -90 6
-16 14 -50 17 -75 9 -82 49 -211 77 -250 9 -13 9 -13 -6 -2 -31 25 -113 229
-143 359 -39 167 -23 331 51 545 66 190 127 286 283 451 139 145 477 358 786
493 121 53 563 221 783 298 53 19 153 55 222 81 69 26 185 67 259 91 73 25
154 54 180 66 275 124 545 308 717 489 72 77 233 297 297 407 156 267 257 631
257 925 0 63 4 96 10 92 6 -3 10 -25 10 -48z m-8276 -117 c14 -122 56 -320 91
-425 51 -156 161 -380 258 -526 160 -243 424 -480 732 -658 169 -98 278 -149
402 -186 106 -33 341 -118 477 -175 55 -22 223 -87 375 -144 320 -120 473
-187 667 -293 140 -76 371 -225 453 -292 146 -119 327 -420 392 -651 20 -73
24 -107 23 -235 0 -178 -15 -238 -99 -404 -75 -149 -116 -200 -56 -69 35 75
60 173 71 283 15 131 32 225 41 219 13 -8 11 12 -6 52 -8 19 -10 32 -5 29 18
-11 -29 85 -55 113 l-26 27 12 -32 c9 -26 8 -36 -5 -55 -17 -24 -22 -14 -7 11
10 16 4 32 -24 66 -16 20 -16 20 -6 -2 6 -12 11 -28 10 -35 0 -7 -9 7 -20 31
-11 25 -17 51 -14 58 2 8 -2 27 -10 43 -13 26 -13 30 1 44 14 15 14 17 0 22
-9 3 -14 10 -11 14 2 4 -10 27 -28 50 -17 24 -36 50 -42 59 -5 9 -12 18 -15
21 -3 3 -23 28 -45 55 -66 84 -234 241 -271 255 -13 5 -24 14 -24 19 0 5 -12
12 -26 15 -15 4 -53 25 -86 47 -62 42 -168 94 -168 82 0 -4 -7 2 -15 13 -12
16 -14 17 -15 2 0 -11 -6 -15 -20 -11 -11 3 -20 9 -20 15 0 5 -8 5 -18 -1 -14
-8 -26 -4 -51 18 -17 15 -48 33 -69 41 -20 7 -39 16 -42 20 -9 12 -129 90
-139 90 -5 0 -16 6 -23 13 -8 6 -50 31 -94 53 -74 39 -116 53 -174 60 -69 7
-95 17 -186 65 -216 114 -223 117 -272 115 -38 -2 -67 8 -164 56 -65 32 -120
58 -124 58 -3 0 -36 14 -73 31 -36 17 -75 34 -86 39 -11 5 -56 25 -100 45 -44
19 -87 39 -95 44 -8 5 -49 26 -90 47 -41 21 -95 52 -120 70 -25 17 -62 39 -82
47 -21 9 -38 20 -38 25 0 5 -27 29 -60 53 -33 24 -60 47 -60 51 0 3 -9 10 -20
13 -11 3 -20 13 -20 21 0 8 -3 14 -7 14 -28 0 -272 243 -320 317 -18 29 -33
54 -33 57 0 3 -24 31 -54 63 -30 31 -52 61 -50 65 3 4 1 8 -4 8 -5 0 -17 19
-28 43 -10 23 -24 48 -30 54 -7 7 -15 32 -19 55 -12 81 -16 97 -31 109 -8 6
-14 18 -14 26 0 15 -62 146 -79 167 -5 6 -12 24 -15 40 -3 16 -8 31 -11 35 -3
3 -4 -7 -1 -23 3 -17 2 -25 -3 -20 -14 14 -24 352 -15 498 4 72 9 124 10 116
2 -8 10 -76 18 -150z m-1 -535 c-7 -21 -13 -19 -13 6 0 11 4 18 10 14 5 -3 7
-12 3 -20z m47 -146 c0 -18 2 -19 15 -9 17 14 17 14 20 -52 3 -56 -9 -54 -36
6 -21 45 -24 76 -9 76 6 0 10 -10 10 -21z m1600 -901 c24 -9 140 -99 140 -109
0 -29 -117 30 -143 73 -7 10 -15 18 -20 18 -10 0 -77 72 -77 84 0 4 19 -7 43
-26 23 -19 49 -37 57 -40z m1400 -578 c8 -5 11 -10 5 -10 -5 0 -17 5 -25 10
-8 5 -10 10 -5 10 6 0 17 -5 25 -10z m565 -270 c3 -5 2 -10 -4 -10 -5 0 -13 5
-16 10 -3 6 -2 10 4 10 5 0 13 -4 16 -10z m-945 -227 c-19 -9 -77 -36 -129
-60 -91 -42 -187 -111 -260 -187 -19 -20 -31 -36 -25 -36 5 0 2 -6 -6 -13 -8
-7 -21 -24 -27 -39 -7 -16 -19 -28 -26 -28 -21 0 -44 -31 -49 -65 -3 -16 -3
-24 -1 -17 9 26 20 10 21 -30 1 -31 -1 -39 -8 -28 -5 8 -10 11 -10 5 1 -5 7
-18 14 -28 12 -16 14 -13 20 30 9 62 15 83 26 83 4 0 2 -21 -6 -47 -21 -68
-18 -202 5 -263 21 -54 128 -210 144 -210 6 0 7 -3 4 -6 -23 -23 -155 116
-202 211 -61 123 -69 283 -21 390 68 149 267 293 463 334 109 23 117 24 73 4z
m2995 -1 c28 -10 55 -17 62 -15 24 8 142 -42 220 -93 84 -56 148 -120 189
-189 29 -50 55 -150 49 -190 -2 -16 -5 -55 -5 -85 -3 -106 -64 -225 -166 -324
-54 -53 -74 -66 -74 -49 0 4 12 19 27 35 59 62 118 182 129 264 12 88 6 130
-31 224 -18 47 -28 77 -22 67 31 -48 36 -53 30 -27 -4 14 -15 40 -25 58 -10
18 -16 38 -12 43 16 27 -141 140 -341 246 -105 55 -114 65 -30 35z m-3444
-395 c-10 -9 -11 -8 -5 6 3 10 9 15 12 12 3 -3 0 -11 -7 -18z m-26 3 c-3 -5
-10 -10 -16 -10 -5 0 -9 5 -9 10 0 6 7 10 16 10 8 0 12 -4 9 -10z m1483 -235
c-3 -3 -9 2 -12 12 -6 14 -5 15 5 6 7 -7 10 -15 7 -18z m99 -277 c-3 -8 -6 -5
-6 6 -1 11 2 17 5 13 3 -3 4 -12 1 -19z"/>
<path d="M10680 8499 c0 -18 2 -19 15 -9 8 7 15 16 15 21 0 5 -7 9 -15 9 -9 0
-15 -9 -15 -21z"/>
<path d="M10560 8420 c-9 -6 -10 -10 -3 -10 6 0 15 5 18 10 8 12 4 12 -15 0z"/>
<path d="M7832 2750 c0 -14 2 -19 5 -12 2 6 2 18 0 25 -3 6 -5 1 -5 -13z"/>
<path d="M7852 2728 c-5 -7 -6 -22 -2 -33 6 -17 8 -15 12 13 5 36 5 37 -10 20z"/>
<path d="M3401 6004 c0 -11 3 -14 6 -6 3 7 2 16 -1 19 -3 4 -6 -2 -5 -13z"/>
<path d="M7227 2703 c-4 -3 -7 -18 -6 -32 1 -26 1 -25 10 3 9 31 7 41 -4 29z"/>
<path d="M5526 3281 c-9 -13 -4 -98 6 -112 5 -9 8 11 6 54 -3 69 -3 73 -12 58z"/>
<path d="M5570 3134 c0 -8 5 -12 10 -9 6 4 8 11 5 16 -9 14 -15 11 -15 -7z"/>
</g>
</svg>
